<svg width="32" height="32" viewBox="0 0 32 32" fill="none" xmlns="http://www.w3.org/2000/svg">
<path opacity="0.4" d="M21.5867 2.66666H10.4134C5.56002 2.66666 2.66669 5.56 2.66669 10.4133V21.5733C2.66669 26.44 5.56002 29.3333 10.4134 29.3333H21.5734C26.4267 29.3333 29.32 26.44 29.32 21.5867V10.4133C29.3334 5.56 26.44 2.66666 21.5867 2.66666Z" fill="#284A63"/>
<path d="M21 13H11C10.4533 13 10 12.5467 10 12C10 11.4533 10.4533 11 11 11H21C21.5467 11 22 11.4533 22 12C22 12.5467 21.5467 13 21 13Z" fill="#284A63"/>
<path d="M21 21H11C10.4533 21 10 20.5467 10 20C10 19.4533 10.4533 19 11 19H21C21.5467 19 22 19.4533 22 20C22 20.5467 21.5467 21 21 21Z" fill="#284A63"/>
</svg>
