<svg width="230" height="218" viewBox="0 0 230 218" fill="none" xmlns="http://www.w3.org/2000/svg">
<g opacity="0.2">
<path d="M126.496 160.3C148.717 160.3 166.731 142.286 166.731 120.065C166.731 97.8433 148.717 79.8292 126.496 79.8292C104.274 79.8292 86.2602 97.8433 86.2602 120.065C86.2602 142.286 104.274 160.3 126.496 160.3Z" fill="#C4C4C4"/>
<path d="M126.496 189.04C116.577 189.042 106.774 186.905 97.7561 182.775C96.3688 182.135 95.2927 180.969 94.7646 179.536C94.2364 178.102 94.2993 176.517 94.9396 175.13C95.5799 173.743 96.745 172.667 98.1787 172.139C99.6123 171.61 101.197 171.673 102.584 172.314C112.594 176.899 123.709 178.514 134.61 176.966C145.51 175.417 155.736 170.771 164.072 163.579C172.409 156.387 178.504 146.953 181.634 136.397C184.763 125.842 184.796 114.61 181.727 104.036C178.658 93.4628 172.618 83.9932 164.323 76.7534C156.028 69.5136 145.829 64.8083 134.938 63.197C124.047 61.5857 112.922 63.1361 102.886 67.664C92.8509 72.1919 84.3269 79.5067 78.328 88.7385C77.9129 89.3726 77.3769 89.9186 76.7507 90.3456C76.1245 90.7725 75.4203 91.0719 74.6784 91.2267C73.9365 91.3815 73.1714 91.3886 72.4267 91.2477C71.6821 91.1068 70.9724 90.8206 70.3384 90.4054C69.7043 89.9903 69.1582 89.4543 68.7313 88.8281C68.3044 88.2019 68.005 87.4977 67.8502 86.7558C67.6954 86.0139 67.6883 85.2488 67.8292 84.5041C67.9701 83.7595 68.2563 83.0498 68.6715 82.4158C75.1938 72.4036 84.2052 64.2576 94.8228 58.7759C105.44 53.2941 117.3 50.6647 129.24 51.1453C141.179 51.6259 152.789 55.1999 162.932 61.5173C173.074 67.8346 181.402 76.6785 187.098 87.1825C192.795 97.6865 195.665 109.49 195.427 121.437C195.189 133.384 191.852 145.064 185.742 155.333C179.633 165.602 170.96 174.108 160.574 180.017C150.188 185.925 138.445 189.035 126.496 189.04Z" fill="#C4C4C4"/>
<path d="M132.244 28.0977H120.748C116.175 28.0977 111.789 29.9144 108.555 33.1483C105.321 36.3821 103.504 40.7681 103.504 45.3415V56.8374C103.504 58.3618 104.11 59.8238 105.188 60.9018C106.266 61.9797 107.728 62.5853 109.252 62.5853H143.74C145.264 62.5853 146.726 61.9797 147.804 60.9018C148.882 59.8238 149.488 58.3618 149.488 56.8374V45.3415C149.488 40.7681 147.671 36.3821 144.437 33.1483C141.203 29.9144 136.817 28.0977 132.244 28.0977ZM159.719 93.5093C158.771 92.3249 157.392 91.5636 155.885 91.3913C154.377 91.219 152.863 91.6497 151.672 92.5896L135.52 105.465C132.829 103.733 129.696 102.815 126.496 102.821C123.085 102.821 119.751 103.832 116.916 105.727C114.08 107.622 111.87 110.315 110.565 113.466C109.259 116.617 108.918 120.084 109.583 123.429C110.249 126.774 111.891 129.846 114.303 132.258C116.714 134.67 119.787 136.312 123.132 136.977C126.477 137.643 129.944 137.301 133.095 135.996C136.246 134.691 138.939 132.481 140.834 129.645C142.728 126.809 143.74 123.475 143.74 120.065C143.732 118.103 143.382 116.158 142.705 114.317L158.799 101.441C159.951 100.496 160.69 99.1408 160.861 97.6611C161.033 96.1814 160.623 94.6929 159.719 93.5093ZM86.2602 102.821H51.7726C50.2481 102.821 48.7861 103.427 47.7082 104.504C46.6302 105.582 46.0246 107.044 46.0246 108.569C46.0246 110.093 46.6302 111.555 47.7082 112.633C48.7861 113.711 50.2481 114.317 51.7726 114.317H86.2602C87.7847 114.317 89.2467 113.711 90.3246 112.633C91.4026 111.555 92.0082 110.093 92.0082 108.569C92.0082 107.044 91.4026 105.582 90.3246 104.504C89.2467 103.427 87.7847 102.821 86.2602 102.821ZM86.2602 125.813H40.2767C38.7522 125.813 37.2902 126.418 36.2123 127.496C35.1343 128.574 34.5287 130.036 34.5287 131.561C34.5287 133.085 35.1343 134.547 36.2123 135.625C37.2902 136.703 38.7522 137.309 40.2767 137.309H86.2602C87.7847 137.309 89.2467 136.703 90.3246 135.625C91.4026 134.547 92.0082 133.085 92.0082 131.561C92.0082 130.036 91.4026 128.574 90.3246 127.496C89.2467 126.418 87.7847 125.813 86.2602 125.813ZM86.2602 148.804H51.7726C50.2481 148.804 48.7861 149.41 47.7082 150.488C46.6302 151.566 46.0246 153.028 46.0246 154.552C46.0246 156.077 46.6302 157.539 47.7082 158.617C48.7861 159.695 50.2481 160.3 51.7726 160.3H86.2602C87.7847 160.3 89.2467 159.695 90.3246 158.617C91.4026 157.539 92.0082 156.077 92.0082 154.552C92.0082 153.028 91.4026 151.566 90.3246 150.488C89.2467 149.41 87.7847 148.804 86.2602 148.804Z" fill="#C4C4C4"/>
</g>
</svg>