<svg width="32" height="32" viewBox="0 0 32 32" fill="none" xmlns="http://www.w3.org/2000/svg">
<path d="M16 12V2.66667L13.3334 5.33333" stroke="#284A63" stroke-width="1.5" stroke-linecap="round" stroke-linejoin="round"/>
<path d="M16 2.66667L18.6667 5.33333" stroke="#284A63" stroke-width="1.5" stroke-linecap="round" stroke-linejoin="round"/>
<path d="M2.64001 17.3333H8.52001C9.02668 17.3333 9.48001 17.6133 9.70668 18.0667L11.2667 21.1867C11.72 22.0933 12.64 22.6667 13.6533 22.6667H18.36C19.3733 22.6667 20.2933 22.0933 20.7467 21.1867L22.3067 18.0667C22.5333 17.6133 23 17.3333 23.4933 17.3333H29.3067" stroke="#284A63" stroke-width="1.5" stroke-linecap="round" stroke-linejoin="round"/>
<path d="M9.33329 6.84C4.61329 7.53333 2.66663 10.3067 2.66663 16V20C2.66663 26.6667 5.33329 29.3333 12 29.3333H20C26.6666 29.3333 29.3333 26.6667 29.3333 20V16C29.3333 10.3067 27.3866 7.53333 22.6666 6.84" stroke="#284A63" stroke-width="1.5" stroke-linecap="round" stroke-linejoin="round"/>
</svg>
